#N canvas 31 204 824 342 10;
#X floatatom 114 61 5 0 0 0 - - -;
#X obj 114 79 sel 1;
#X msg 114 100 connect localhost 1570;
#X msg 127 244 disconnect;
#X obj 12 38 netreceive 1571;
#X obj 114 270 netsend;
#X obj 499 6 inlet;
#X obj 498 306 outlet;
#X obj 12 63 s \$0-result;
#X obj 498 283 r \$0-result;
#X obj 499 27 list prepend send;
#X obj 499 49 list trim;
#X obj 499 70 s \$0-send;
#X obj 42 182 r \$0-send;
#X text 10 8 bash communicator. run this patch \, then run ./http-fetch/urlfetch
;
#X connect 0 0 1 0;
#X connect 1 0 2 0;
#X connect 2 0 5 0;
#X connect 3 0 5 0;
#X connect 4 0 8 0;
#X connect 4 1 0 0;
#X connect 6 0 10 0;
#X connect 9 0 7 0;
#X connect 10 0 11 0;
#X connect 11 0 12 0;
#X connect 13 0 5 0;
