#N canvas 35 258 824 342 10;
#X floatatom 114 61 5 0 0 0 - - -;
#X obj 114 79 sel 1;
#X msg 114 100 connect localhost 1570;
#X msg 127 244 disconnect;
#X msg 157 177 send ls;
#X obj 12 38 netreceive 1571;
#X obj 114 270 netsend;
#X msg 135 127 send echo hello;
#X msg 143 152 send ls -alh;
#X text 10 8 bash communicator. run this patch \, then run ./listener
;
#X text 257 127 <- then click these guys;
#X obj 499 6 inlet;
#X obj 498 306 outlet;
#X obj 12 63 s \$0-result;
#X obj 498 283 r \$0-result;
#X obj 499 27 list prepend send;
#X obj 499 49 list trim;
#X obj 499 70 s \$0-send;
#X obj 42 182 r \$0-send;
#X connect 0 0 1 0;
#X connect 1 0 2 0;
#X connect 2 0 6 0;
#X connect 3 0 6 0;
#X connect 4 0 6 0;
#X connect 5 0 13 0;
#X connect 5 1 0 0;
#X connect 7 0 6 0;
#X connect 8 0 6 0;
#X connect 11 0 15 0;
#X connect 14 0 12 0;
#X connect 15 0 16 0;
#X connect 16 0 17 0;
#X connect 18 0 6 0;
